<svg width="64" height="66" viewBox="0 0 64 66" fill="none" xmlns="http://www.w3.org/2000/svg">
<path d="M25.49 1.1V0.0999966H24.7903L24.5506 0.757298L25.49 1.1ZM38.81 1.1L39.7494 0.757298L39.5097 0.0999966H38.81V1.1ZM62.12 65V66H63.5493L63.0594 64.6573L62.12 65ZM47 65L46.0549 65.3269L46.2878 66H47V65ZM42.05 50.69L42.9951 50.3631L42.7622 49.69H42.05V50.69ZM22.16 50.69V49.69H21.4435L21.2131 50.3684L22.16 50.69ZM17.3 65V66H18.0165L18.2469 65.3216L17.3 65ZM2.18 65L1.24055 64.6573L0.750753 66H2.18V65ZM39.62 40.52V41.52H41.0039L40.5694 40.206L39.62 40.52ZM32.15 17.93L33.0994 17.616L32.1613 14.779L31.2028 17.6092L32.15 17.93ZM24.5 40.52L23.5528 40.1992L23.1056 41.52H24.5V40.52ZM25.49 2.1H38.81V0.0999966H25.49V2.1ZM37.8706 1.4427L61.1806 65.3427L63.0594 64.6573L39.7494 0.757298L37.8706 1.4427ZM62.12 64H47V66H62.12V64ZM47.9451 64.6731L42.9951 50.3631L41.1049 51.0169L46.0549 65.3269L47.9451 64.6731ZM42.05 49.69H22.16V51.69H42.05V49.69ZM21.2131 50.3684L16.3531 64.6784L18.2469 65.3216L23.1069 51.0116L21.2131 50.3684ZM17.3 64H2.18V66H17.3V64ZM3.11945 65.3427L26.4294 1.4427L24.5506 0.757298L1.24055 64.6573L3.11945 65.3427ZM40.5694 40.206L33.0994 17.616L31.2006 18.244L38.6706 40.834L40.5694 40.206ZM31.2028 17.6092L23.5528 40.1992L25.4472 40.8408L33.0972 18.2508L31.2028 17.6092ZM24.5 41.52H39.62V39.52H24.5V41.52Z" fill="#D722F4"/>
</svg>
