<svg width="55" height="66" viewBox="0 0 55 66" fill="none" xmlns="http://www.w3.org/2000/svg">
<path d="M47.56 60.95L48.1147 61.7821L48.1233 61.7763L48.1318 61.7704L47.56 60.95ZM40.63 64.01L40.8725 64.9801L40.8829 64.9776L40.8931 64.9748L40.63 64.01ZM1.12 65H0.12V66H1.12V65ZM1.12 1.1V0.0999966H0.12V1.1H1.12ZM42.7 2.54L42.2294 3.42235L42.7 2.54ZM47.29 6.32L46.5121 6.94834L46.5181 6.95582L46.5243 6.96319L47.29 6.32ZM50.17 11.54L49.2213 11.8562L49.2272 11.8738L49.2337 11.8911L50.17 11.54ZM48.91 26.12L48.0441 25.6197L48.0399 25.627L48.0358 25.6344L48.91 26.12ZM42.07 32.24L41.6589 31.3284L39.2021 32.4364L41.787 33.1991L42.07 32.24ZM50.71 38L49.9141 38.6056L49.9225 38.6163L50.71 38ZM37.21 40.61L37.981 39.9731L37.21 40.61ZM15.88 38.54V37.54H14.88V38.54H15.88ZM15.88 52.49H14.88V53.49H15.88V52.49ZM37.03 50.6L36.3229 49.8929L37.03 50.6ZM15.88 13.7V12.7H14.88V13.7H15.88ZM15.88 26.93H14.88V27.93H15.88V26.93ZM34.87 15.41L34.144 16.0977L34.1533 16.1076L34.1629 16.1171L34.87 15.41ZM52.95 48.62C52.95 51.2402 52.4098 53.4662 51.3671 55.3322L53.1129 56.3078C54.3502 54.0938 54.95 51.5198 54.95 48.62H52.95ZM51.3671 55.3322C50.3034 57.2355 48.8481 58.8333 46.9882 60.1296L48.1318 61.7704C50.2319 60.3067 51.8966 58.4845 53.1129 56.3078L51.3671 55.3322ZM47.0053 60.118C45.127 61.3701 42.9184 62.3494 40.3669 63.0452L40.8931 64.9748C43.6216 64.2306 46.033 63.1699 48.1147 61.7821L47.0053 60.118ZM40.3875 63.0399C37.8329 63.6785 35.1248 64 32.26 64V66C35.2752 66 38.1471 65.6615 40.8725 64.9801L40.3875 63.0399ZM32.26 64H1.12V66H32.26V64ZM2.12 65V1.1H0.12V65H2.12ZM1.12 2.1H36.67V0.0999966H1.12V2.1ZM36.67 2.1C38.7407 2.1 40.5868 2.54628 42.2294 3.42235L43.1706 1.65765C41.2132 0.613714 39.0393 0.0999966 36.67 0.0999966V2.1ZM42.2294 3.42235C43.9131 4.32029 45.3379 5.49462 46.5121 6.94834L48.0679 5.69166C46.7221 4.02538 45.0869 2.6797 43.1706 1.65765L42.2294 3.42235ZM46.5243 6.96319C47.6981 8.36053 48.5985 9.98787 49.2213 11.8562L51.1187 11.2238C50.4215 9.13213 49.4019 7.27947 48.0557 5.67681L46.5243 6.96319ZM49.2337 11.8911C49.9118 13.6994 50.25 15.5605 50.25 17.48H52.25C52.25 15.3195 51.8682 13.2206 51.1063 11.1889L49.2337 11.8911ZM50.25 17.48C50.25 20.3609 49.518 23.0688 48.0441 25.6197L49.7759 26.6203C51.422 23.7712 52.25 20.7191 52.25 17.48H50.25ZM48.0358 25.6344C46.6496 28.1297 44.5408 30.0287 41.6589 31.3284L42.4811 33.1516C45.7192 31.6912 48.1704 29.5103 49.7842 26.6056L48.0358 25.6344ZM41.787 33.1991C45.2643 34.2252 47.9561 36.032 49.9142 38.6055L51.5058 37.3945C49.2639 34.448 46.1957 32.4148 42.353 31.2809L41.787 33.1991ZM49.9225 38.6163C51.9152 41.1626 52.95 44.4701 52.95 48.62H54.95C54.95 44.1299 53.8248 40.3574 51.4975 37.3837L49.9225 38.6163ZM39.92 45.65C39.92 43.4639 39.285 41.5516 37.981 39.9731L36.439 41.2469C37.415 42.4284 37.92 43.8761 37.92 45.65H39.92ZM37.981 39.9731C36.6573 38.3708 34.938 37.54 32.89 37.54V39.54C34.322 39.54 35.4827 40.0892 36.439 41.2469L37.981 39.9731ZM32.89 37.54H15.88V39.54H32.89V37.54ZM14.88 38.54V52.49H16.88V38.54H14.88ZM15.88 53.49H32.26V51.49H15.88V53.49ZM32.26 53.49C34.4225 53.49 36.2741 52.7701 37.7371 51.3071L36.3229 49.8929C35.2659 50.9499 33.9375 51.49 32.26 51.49V53.49ZM37.7371 51.3071C39.2122 49.832 39.92 47.9135 39.92 45.65H37.92C37.92 47.4665 37.3678 48.848 36.3229 49.8929L37.7371 51.3071ZM14.88 13.7V26.93H16.88V13.7H14.88ZM15.88 27.93H30.37V25.93H15.88V27.93ZM30.37 27.93C32.235 27.93 33.9044 27.3005 35.3408 26.0693L34.0392 24.5507C32.9556 25.4795 31.745 25.93 30.37 25.93V27.93ZM35.3408 26.0693C36.8966 24.7357 37.58 22.7275 37.58 20.27H35.58C35.58 22.3724 35.0034 23.7243 34.0392 24.5507L35.3408 26.0693ZM37.58 20.27C37.58 17.9884 36.9565 16.0822 35.5771 14.7029L34.1629 16.1171C35.0635 17.0177 35.58 18.3516 35.58 20.27H37.58ZM35.596 14.7223C34.3285 13.3844 32.7467 12.7 30.91 12.7V14.7C32.1933 14.7 33.2515 15.1556 34.144 16.0977L35.596 14.7223ZM30.91 12.7H15.88V14.7H30.91V12.7Z" fill="#D722F4"/>
</svg>
