<svg width="48" height="66" viewBox="0 0 48 66" fill="none" xmlns="http://www.w3.org/2000/svg">
<path d="M46.03 52.04H47.03V51.04H46.03V52.04ZM46.03 65V66H47.03V65H46.03ZM1.12 65H0.12V66H1.12V65ZM1.12 1.1V0.0999966H0.12V1.1H1.12ZM45.22 1.1H46.22V0.0999966H45.22V1.1ZM45.22 14.06V15.06H46.22V14.06H45.22ZM15.88 14.06V13.06H14.88V14.06H15.88ZM15.88 26.48H14.88V27.48H15.88V26.48ZM41.08 26.48H42.08V25.48H41.08V26.48ZM41.08 38.45V39.45H42.08V38.45H41.08ZM15.88 38.45V37.45H14.88V38.45H15.88ZM15.88 52.04H14.88V53.04H15.88V52.04ZM45.03 52.04V65H47.03V52.04H45.03ZM46.03 64H1.12V66H46.03V64ZM2.12 65V1.1H0.12V65H2.12ZM1.12 2.1H45.22V0.0999966H1.12V2.1ZM44.22 1.1V14.06H46.22V1.1H44.22ZM45.22 13.06H15.88V15.06H45.22V13.06ZM14.88 14.06V26.48H16.88V14.06H14.88ZM15.88 27.48H41.08V25.48H15.88V27.48ZM40.08 26.48V38.45H42.08V26.48H40.08ZM41.08 37.45H15.88V39.45H41.08V37.45ZM14.88 38.45V52.04H16.88V38.45H14.88ZM15.88 53.04H46.03V51.04H15.88V53.04Z" fill="#D722F4"/>
</svg>
