<svg width="59" height="67" viewBox="0 0 59 67" fill="none" xmlns="http://www.w3.org/2000/svg">
<path d="M35.96 50.87L36.4657 51.7327L36.4766 51.7263L36.4874 51.7196L35.96 50.87ZM40.19 46.64L41.0396 47.1674L40.19 46.64ZM42.44 40.7L41.4615 40.494L41.4593 40.504L41.4574 40.5141L42.44 40.7ZM43.16 1.1V0.0999966H42.16V1.1H43.16ZM57.92 1.1H58.92V0.0999966H57.92V1.1ZM56.21 46.19L55.2514 45.9054L55.2493 45.9123L55.2474 45.9193L56.21 46.19ZM51.08 56.27L50.3038 55.6394L50.296 55.6493L51.08 56.27ZM42.26 63.11L42.6761 64.0193L42.6829 64.0162L42.26 63.11ZM16.52 62.93L16.9552 62.0296L16.52 62.93ZM7.7 56L6.90196 56.6026L6.90885 56.6117L6.91596 56.6207L7.7 56ZM2.75 45.83L1.78351 46.0867L1.78538 46.0938L1.78735 46.1007L2.75 45.83ZM1.22 1.1V0.0999966H0.22V1.1H1.22ZM15.98 1.1H16.98V0.0999966H15.98V1.1ZM16.7 40.79L15.7226 41.0013L16.7 40.79ZM23.18 50.87L22.661 51.7248L22.6676 51.7288L22.6743 51.7327L23.18 50.87ZM29.57 53.4C32.2239 53.4 34.5385 52.8625 36.4657 51.7327L35.4543 50.0073C33.9015 50.9175 31.9561 51.4 29.57 51.4V53.4ZM36.4874 51.7196C38.3582 50.5584 39.8785 49.0382 41.0396 47.1674L39.3404 46.1126C38.3415 47.7218 37.0418 49.0215 35.4326 50.0204L36.4874 51.7196ZM41.0396 47.1674C42.191 45.3124 42.982 43.2144 43.4226 40.8859L41.4574 40.5141C41.058 42.6256 40.349 44.4876 39.3404 46.1126L41.0396 47.1674ZM43.4186 40.906C43.9129 38.558 44.16 36.1789 44.16 33.77H42.16C42.16 36.0411 41.9271 38.282 41.4615 40.494L43.4186 40.906ZM44.16 33.77V1.1H42.16V33.77H44.16ZM43.16 2.1H57.92V0.0999966H43.16V2.1ZM56.92 1.1V33.77H58.92V1.1H56.92ZM56.92 33.77C56.92 38.124 56.3611 42.1672 55.2514 45.9054L57.1686 46.4746C58.3389 42.5328 58.92 38.296 58.92 33.77H56.92ZM55.2474 45.9193C54.2015 49.6378 52.5515 52.8731 50.3039 55.6394L51.8561 56.9006C54.2885 53.9069 56.0585 50.4222 57.1727 46.4607L55.2474 45.9193ZM50.296 55.6493C48.1202 58.3976 45.3079 60.5841 41.8371 62.2038L42.6829 64.0162C46.4121 62.2759 49.4798 59.9024 51.864 56.8907L50.296 55.6493ZM41.8439 62.2007C38.4641 63.7474 34.3831 64.54 29.57 64.54V66.54C34.597 66.54 38.9759 65.7126 42.6761 64.0193L41.8439 62.2007ZM29.57 64.54C24.5805 64.54 20.3874 63.6886 16.9552 62.0296L16.0848 63.8303C19.8526 65.6514 24.3595 66.54 29.57 66.54V64.54ZM16.9552 62.0296C13.4788 60.3494 10.6623 58.1307 8.48405 55.3793L6.91596 56.6207C9.29773 59.6293 12.3612 62.0306 16.0848 63.8303L16.9552 62.0296ZM8.49804 55.3974C6.3591 52.5648 4.76173 49.2893 3.71265 45.5592L1.78735 46.1007C2.89827 50.0507 4.6009 53.5553 6.90196 56.6026L8.49804 55.3974ZM3.71649 45.5733C2.71997 41.8217 2.22 37.8883 2.22 33.77H0.22C0.22 38.0517 0.740033 42.1583 1.78351 46.0867L3.71649 45.5733ZM2.22 33.77V1.1H0.22V33.77H2.22ZM1.22 2.1H15.98V0.0999966H1.22V2.1ZM14.98 1.1V33.77H16.98V1.1H14.98ZM14.98 33.77C14.98 36.2952 15.2264 38.7064 15.7226 41.0013L17.6774 40.5787C17.2136 38.4336 16.98 36.1648 16.98 33.77H14.98ZM15.7226 41.0013C16.2242 43.3211 17.0438 45.4101 18.1904 47.2574L19.8896 46.2026C18.8762 44.5699 18.1358 42.6989 17.6774 40.5787L15.7226 41.0013ZM18.1904 47.2574C19.3497 49.1252 20.8409 50.6197 22.661 51.7248L23.699 50.0152C22.1591 49.0803 20.8903 47.8148 19.8896 46.2026L18.1904 47.2574ZM22.6743 51.7327C24.6015 52.8625 26.9161 53.4 29.57 53.4V51.4C27.1839 51.4 25.2385 50.9175 23.6857 50.0073L22.6743 51.7327Z" fill="#D722F4"/>
</svg>
