<svg width="65" height="66" viewBox="0 0 65 66" fill="none" xmlns="http://www.w3.org/2000/svg">
<path d="M18.39 1.1L19.2351 0.565355L18.9407 0.0999966H18.39V1.1ZM32.34 23.15L31.4949 23.6846L32.34 25.0204L33.1851 23.6846L32.34 23.15ZM46.29 1.1V0.0999966H45.7393L45.4449 0.565355L46.29 1.1ZM62.22 1.1L63.0457 1.66419L64.1145 0.0999966H62.22V1.1ZM40.08 33.5L39.2544 32.9358L38.8698 33.4986L39.2531 34.0623L40.08 33.5ZM61.5 65V66H63.3893L62.3269 64.4377L61.5 65ZM45.57 65L44.7222 65.5303L45.016 66H45.57V65ZM32.34 43.85L33.1878 43.3197L32.34 41.9644L31.4922 43.3197L32.34 43.85ZM19.11 65V66H19.664L19.9578 65.5303L19.11 65ZM3.09 65L2.26307 64.4377L1.2007 66H3.09V65ZM24.51 33.5L25.3369 34.0623L25.7202 33.4986L25.3356 32.9358L24.51 33.5ZM2.37 1.1V0.0999966H0.475492L1.54436 1.66419L2.37 1.1ZM17.5449 1.63464L31.4949 23.6846L33.1851 22.6154L19.2351 0.565355L17.5449 1.63464ZM33.1851 23.6846L47.1351 1.63464L45.4449 0.565355L31.4949 22.6154L33.1851 23.6846ZM46.29 2.1H62.22V0.0999966H46.29V2.1ZM61.3944 0.535807L39.2544 32.9358L40.9056 34.0642L63.0457 1.66419L61.3944 0.535807ZM39.2531 34.0623L60.6731 65.5623L62.3269 64.4377L40.9069 32.9377L39.2531 34.0623ZM61.5 64H45.57V66H61.5V64ZM46.4178 64.4697L33.1878 43.3197L31.4922 44.3803L44.7222 65.5303L46.4178 64.4697ZM31.4922 43.3197L18.2622 64.4697L19.9578 65.5303L33.1878 44.3803L31.4922 43.3197ZM19.11 64H3.09V66H19.11V64ZM3.91693 65.5623L25.3369 34.0623L23.6831 32.9377L2.26307 64.4377L3.91693 65.5623ZM25.3356 32.9358L3.19564 0.535807L1.54436 1.66419L23.6844 34.0642L25.3356 32.9358ZM2.37 2.1H18.39V0.0999966H2.37V2.1Z" fill="#D722F4"/>
</svg>
